<svg width="881" height="577" viewBox="0 0 881 577" fill="none" xmlns="http://www.w3.org/2000/svg">
<g clip-path="url(#clip0_260_1043)">
<path d="M435.554 97.9669C450.301 97.9669 462.255 86.0125 462.255 71.2661C462.255 56.5197 450.301 44.5654 435.554 44.5654C420.808 44.5654 408.854 56.5197 408.854 71.2661C408.854 86.0125 420.808 97.9669 435.554 97.9669Z" fill="#C3DFED"/>
<path d="M495.313 58.6229C494.56 56.1538 493.101 53.9588 491.116 52.3082C489.132 50.6576 486.708 49.6234 484.143 49.3329C484.083 49.3279 484.023 49.3279 483.963 49.3329C483.891 49.3104 483.817 49.2937 483.743 49.2829C474.803 48.1229 464.863 50.9429 458.173 57.0829C455.689 59.3263 453.703 62.0651 452.343 65.1229C451.103 63.4289 449.468 62.0628 447.581 61.1428C445.694 60.2228 443.611 59.7766 441.513 59.8429C438.807 60.0218 436.221 61.031 434.11 62.7328C431.998 64.4347 430.463 66.7464 429.713 69.3529C429.63 69.6713 429.653 70.0078 429.777 70.3124C429.902 70.6169 430.121 70.8731 430.403 71.0429C431.207 71.7307 432.163 72.2175 433.193 72.4629C435.403 72.9329 437.633 73.3629 439.863 73.7529C444.223 74.5129 448.606 75.1295 453.013 75.6029C455.923 75.9129 458.839 76.1595 461.763 76.3429C467.803 76.7229 473.873 76.8129 479.923 76.6229C482.923 76.5229 485.803 76.4229 488.543 75.1029C490.539 74.1209 492.246 72.6354 493.493 70.7929C494.667 69.0205 495.438 67.0124 495.753 64.9098C496.067 62.8072 495.917 60.6612 495.313 58.6229Z" fill="#E6E6E6"/>
<path d="M440.382 97.5229C440.332 96.404 440.144 95.2957 439.822 94.2229C439.066 91.754 437.605 89.5597 435.619 87.9094C433.633 86.2591 431.208 85.2246 428.642 84.9329C428.586 84.9279 428.529 84.9279 428.472 84.9329C428.397 84.9114 428.32 84.8947 428.242 84.8829C423.294 84.2768 418.274 84.7929 413.552 86.3929C406.292 88.8229 399.922 93.7228 396.852 100.723C395.611 99.0278 393.975 97.6611 392.086 96.7411C390.197 95.821 388.112 95.3754 386.012 95.4429C383.306 95.6218 380.721 96.6309 378.609 98.3328C376.498 100.035 374.962 102.346 374.212 104.953C374.135 105.271 374.159 105.606 374.283 105.91C374.407 106.213 374.624 106.47 374.902 106.643C375.708 107.329 376.664 107.815 377.692 108.063C379.912 108.533 382.132 108.963 384.372 109.353C388.732 110.113 393.112 110.73 397.512 111.203C406.451 112.163 415.446 112.503 424.432 112.223C427.422 112.123 430.312 112.023 433.052 110.703C435.046 109.721 436.749 108.235 437.992 106.393C439.745 103.781 440.586 100.662 440.382 97.5229Z" fill="#E6E6E6"/>
<path d="M788.132 421.512C788.516 439.717 786.004 457.868 780.69 475.284C780.504 475.917 780.28 476.55 780.057 477.182H670.502C672.068 469.47 674.554 461.974 677.908 454.854C687.025 435.504 701.91 418.944 716.609 402.496C736.853 379.833 756.613 357.356 759.739 327.884C767.763 340.117 774.168 353.338 778.792 367.218C773.13 369.315 767.934 372.501 763.497 376.595C762.269 377.749 760.967 379.424 761.6 381.024C762.195 382.363 763.832 382.81 765.284 383.108C768.782 383.778 772.28 384.447 775.778 385.08C778.531 385.638 781.322 386.159 784.113 386.68C786.566 398.135 787.912 409.799 788.132 421.512Z" fill="#F2F2F2"/>
<path d="M880.16 409.455C862.595 420.135 851.431 436.657 842.314 455.152C834.38 456.96 827.056 460.808 821.065 466.316C819.8 467.47 818.498 469.144 819.167 470.744C819.726 472.084 821.4 472.531 822.851 472.828C826.312 473.498 829.848 474.168 833.308 474.801C832.973 475.582 832.639 476.401 832.304 477.182H716.199C721.47 470.074 727.306 463.404 733.652 457.236C735.029 455.859 736.443 454.557 737.894 453.217C752.695 439.841 769.689 429.116 788.132 421.512C817.186 409.366 848.957 405.203 880.16 409.455Z" fill="#F2F2F2"/>
<path d="M735.55 477.182H632.172C631.608 468.904 631.658 460.595 632.321 452.324C636.452 401.23 664.25 352.556 706.189 323.083C700.83 342.173 703.584 361.152 709.166 380.205C708.385 380.466 707.603 380.689 706.896 380.987C701.235 383.084 696.039 386.27 691.602 390.364C690.374 391.518 689.071 393.193 689.704 394.793C690.262 396.132 691.936 396.579 693.388 396.877C696.886 397.546 700.384 398.216 703.845 398.849C706.636 399.407 709.427 399.928 712.217 400.486C713.52 400.71 714.822 400.97 716.125 401.23C716.311 401.677 716.423 402.086 716.609 402.496C723.158 420.544 730.303 438.741 733.652 457.236C734.481 461.877 735.053 466.561 735.364 471.265C735.476 473.238 735.55 475.21 735.55 477.182Z" fill="#F2F2F2"/>
<path d="M172.132 421.512C172.516 439.717 170.004 457.868 164.69 475.284C164.504 475.917 164.28 476.55 164.057 477.182H54.502C56.068 469.47 58.5544 461.974 61.9075 454.854C71.0245 435.504 85.9097 418.944 100.609 402.496C120.853 379.833 140.613 357.356 143.739 327.884C151.763 340.117 158.168 353.338 162.792 367.218C157.13 369.315 151.934 372.501 147.497 376.595C146.269 377.749 144.967 379.424 145.6 381.024C146.195 382.363 147.832 382.81 149.284 383.108C152.782 383.778 156.28 384.447 159.778 385.08C162.531 385.638 165.322 386.159 168.113 386.68C170.566 398.135 171.912 409.799 172.132 421.512Z" fill="#F2F2F2"/>
<path d="M264.16 409.455C246.595 420.135 235.431 436.657 226.314 455.152C218.38 456.96 211.056 460.808 205.065 466.316C203.8 467.47 202.498 469.144 203.167 470.744C203.726 472.084 205.4 472.531 206.852 472.828C210.312 473.498 213.848 474.168 217.308 474.801C216.974 475.582 216.639 476.401 216.304 477.182H100.199C105.47 470.074 111.306 463.404 117.652 457.236C119.029 455.859 120.443 454.557 121.894 453.217C136.695 439.841 153.689 429.116 172.132 421.512C201.186 409.366 232.957 405.203 264.16 409.455Z" fill="#F2F2F2"/>
<path d="M119.55 477.182H16.1723C15.6078 468.904 15.6576 460.595 16.3213 452.324C20.4519 401.23 48.2499 352.556 90.189 323.083C84.8303 342.173 87.584 361.152 93.166 380.205C92.3847 380.466 91.6031 380.689 90.8961 380.987C85.2345 383.084 80.0386 386.27 75.6016 390.364C74.3735 391.518 73.0711 393.193 73.7037 394.793C74.2617 396.132 75.9364 396.579 77.3877 396.877C80.8857 397.546 84.3837 398.216 87.8445 398.849C90.6355 399.407 93.4265 399.928 96.2175 400.486C97.5198 400.71 98.8225 400.97 100.125 401.23C100.311 401.677 100.423 402.086 100.609 402.496C107.158 420.544 114.303 438.741 117.652 457.236C118.481 461.877 119.053 466.561 119.364 471.265C119.476 473.238 119.55 475.21 119.55 477.182Z" fill="#F2F2F2"/>
<path d="M504.41 433.78L596.78 441.98L597.77 442.07V47.93C597.44 47.7 597.11 47.4701 596.78 47.2401C577.529 33.7747 556.705 22.7127 534.77 14.3L530.05 79.4L529.62 85.36L524.95 149.92L523.51 169.78L504.58 431.48L504.41 433.78Z" fill="#B3CFDD"/>
<path d="M275.98 40.59C275.32 41.01 274.66 41.43 274 41.87V442.07L275.98 441.89L367.35 433.78L367.18 431.48L348.25 169.78L346.81 149.92L342.14 85.36L341.71 79.4L336.76 11.13C315.413 18.5294 295.013 28.4175 275.98 40.59Z" fill="#B7CEDC"/>
<path d="M273.999 41.87C272.669 42.73 271.339 43.61 270.029 44.5V447.53C270.029 457.6 275.999 466.04 283.979 468.19C285.283 468.543 286.628 468.721 287.979 468.72H584.779C586.127 468.722 587.469 468.544 588.769 468.19C591.736 467.367 594.424 465.757 596.549 463.53C600.603 459.198 602.818 453.462 602.729 447.53V51.51C601.089 50.3 599.439 49.1 597.769 47.93C597.439 47.7 597.109 47.47 596.779 47.24V447.53C596.782 448.827 596.627 450.12 596.319 451.38C594.909 457.33 590.259 461.69 584.779 461.69H287.979C281.359 461.69 275.979 455.34 275.979 447.53V40.59C275.319 41.01 274.659 41.43 273.999 41.87Z" fill="#B3CFDD"/>
<path d="M599.754 79.404H273.002V85.363H599.754V79.404Z" fill="#B1D0DE"/>
<path d="M499.681 3.39001C497.701 2.90001 495.721 2.44001 493.721 2.01001V163.82H499.681V3.39001Z" fill="#B3CFDE"/>
<path d="M379.04 0C377.05 0.37 375.06 0.750004 373.08 1.16V163.82H379.04V0Z" fill="#B4D0DE"/>
<path d="M208.939 458.29C208.938 461.71 209.593 465.097 210.869 468.27C211.36 469.5 211.945 470.69 212.619 471.83C213.491 473.316 214.502 474.716 215.639 476.01C218.152 478.873 221.246 481.166 224.716 482.737C228.185 484.309 231.951 485.121 235.759 485.12H627.069C634.183 485.12 641.004 482.294 646.034 477.265C651.064 472.235 653.889 465.413 653.889 458.3C653.889 451.187 651.064 444.365 646.034 439.335C641.004 434.306 634.183 431.48 627.069 431.48H235.759C228.65 431.487 221.834 434.313 216.806 439.34C211.778 444.366 208.949 451.181 208.939 458.29Z" fill="#B3CFDD"/>
<path d="M273.002 169.782L597.768 169.782V149.919L273.002 149.919V169.782Z" fill="#B3CFDB"/>
<path d="M449.289 154.885H421.48C421.48 151.987 422.631 149.209 424.68 147.16C426.729 145.111 429.508 143.96 432.405 143.96H438.364C439.799 143.96 441.219 144.243 442.545 144.792C443.87 145.341 445.075 146.145 446.089 147.16C447.104 148.174 447.908 149.379 448.457 150.704C449.006 152.029 449.289 153.45 449.289 154.885Z" fill="#E6E6E6"/>
<path d="M0 473.61C8.68726 483.903 18.0835 493.577 28.12 502.56H834.7C844.737 493.577 854.133 483.903 862.82 473.61H0Z" fill="#3F3D56"/>
<path d="M396.689 376.8V479.36H468.539V376.8C468.541 376.062 468.305 375.344 467.868 374.75C467.431 374.156 466.814 373.718 466.109 373.5C465.777 373.39 465.429 373.336 465.079 373.34H400.159C399.704 373.339 399.254 373.428 398.833 373.601C398.412 373.775 398.03 374.029 397.707 374.351C397.385 374.672 397.129 375.054 396.955 375.474C396.78 375.894 396.69 376.345 396.689 376.8ZM424.729 412.04C424.748 410.018 425.565 408.086 427.001 406.663C428.438 405.24 430.378 404.442 432.399 404.442C434.421 404.442 436.361 405.24 437.798 406.663C439.234 408.086 440.05 410.018 440.069 412.04V423.94C440.059 425.967 439.246 427.908 437.809 429.338C436.372 430.768 434.427 431.571 432.399 431.571C430.372 431.571 428.427 430.768 426.99 429.338C425.552 427.908 424.74 425.967 424.729 423.94V412.04Z" fill="#2F2E41"/>
<path d="M396.471 476.08V485.97C396.472 486.482 396.676 486.973 397.037 487.336C397.398 487.7 397.888 487.906 398.401 487.91H466.831C467.343 487.907 467.834 487.702 468.196 487.338C468.558 486.975 468.761 486.483 468.761 485.97V476.08H396.471Z" fill="#3F3D56"/>
<path d="M283.66 222.28V409.54C283.662 411.926 284.611 414.214 286.298 415.902C287.986 417.589 290.274 418.538 292.66 418.54H570.16C572.547 418.538 574.835 417.589 576.522 415.902C578.209 414.214 579.158 411.926 579.16 409.54V222.28C579.154 219.896 578.204 217.611 576.517 215.926C574.83 214.241 572.544 213.293 570.16 213.29H292.66C290.276 213.293 287.99 214.241 286.303 215.926C284.616 217.611 283.666 219.896 283.66 222.28Z" fill="#3F3D56"/>
<path d="M290.17 224.61V407.23C290.172 408.505 290.68 409.727 291.581 410.629C292.483 411.53 293.705 412.038 294.98 412.04H567.85C569.125 412.038 570.347 411.53 571.249 410.629C572.15 409.727 572.658 408.505 572.66 407.23V224.61C572.66 223.333 572.153 222.109 571.252 221.205C570.35 220.302 569.126 219.793 567.85 219.79H294.98C293.703 219.793 292.48 220.302 291.578 221.205C290.677 222.109 290.17 223.333 290.17 224.61Z" fill="#13354E"/>
<path d="M345.81 490.24C346.088 490.588 346.441 490.869 346.843 491.061C347.245 491.254 347.685 491.352 348.13 491.35H510.47C510.914 491.349 511.353 491.25 511.753 491.059C512.154 490.867 512.507 490.589 512.787 490.245C513.066 489.9 513.266 489.497 513.37 489.065C513.475 488.634 513.481 488.185 513.39 487.75L510.87 475.78C510.766 475.292 510.541 474.838 510.216 474.459C509.891 474.08 509.477 473.788 509.01 473.61C508.673 473.477 508.313 473.41 507.95 473.41H350.64C350.278 473.41 349.918 473.477 349.58 473.61C349.114 473.788 348.699 474.08 348.375 474.459C348.05 474.838 347.825 475.292 347.72 475.78L345.2 487.75C345.111 488.184 345.119 488.633 345.224 489.064C345.33 489.494 345.53 489.896 345.81 490.24Z" fill="#2F2E41"/>
<path d="M502.285 478.566H506.309C506.578 478.566 506.797 478.347 506.797 478.078V476.054C506.797 475.784 506.578 475.566 506.309 475.566H502.285C502.015 475.566 501.797 475.784 501.797 476.054V478.078C501.797 478.347 502.015 478.566 502.285 478.566Z" fill="#3F3D56"/>
<path d="M492.285 478.566H496.309C496.578 478.566 496.797 478.347 496.797 478.078V476.054C496.797 475.784 496.578 475.566 496.309 475.566H492.285C492.015 475.566 491.797 475.784 491.797 476.054V478.078C491.797 478.347 492.015 478.566 492.285 478.566Z" fill="#3F3D56"/>
<path d="M482.285 478.566H486.309C486.578 478.566 486.797 478.347 486.797 478.078V476.054C486.797 475.784 486.578 475.566 486.309 475.566H482.285C482.015 475.566 481.797 475.784 481.797 476.054V478.078C481.797 478.347 482.015 478.566 482.285 478.566Z" fill="#3F3D56"/>
<path d="M472.285 478.566H476.309C476.578 478.566 476.797 478.347 476.797 478.078V476.054C476.797 475.784 476.578 475.566 476.309 475.566H472.285C472.015 475.566 471.797 475.784 471.797 476.054V478.078C471.797 478.347 472.015 478.566 472.285 478.566Z" fill="#3F3D56"/>
<path d="M462.285 478.566H466.309C466.578 478.566 466.797 478.347 466.797 478.078V476.054C466.797 475.784 466.578 475.566 466.309 475.566H462.285C462.015 475.566 461.797 475.784 461.797 476.054V478.078C461.797 478.347 462.015 478.566 462.285 478.566Z" fill="#3F3D56"/>
<path d="M452.285 478.566H456.309C456.578 478.566 456.797 478.347 456.797 478.078V476.054C456.797 475.784 456.578 475.566 456.309 475.566H452.285C452.015 475.566 451.797 475.784 451.797 476.054V478.078C451.797 478.347 452.015 478.566 452.285 478.566Z" fill="#3F3D56"/>
<path d="M442.285 478.566H446.309C446.578 478.566 446.797 478.347 446.797 478.078V476.054C446.797 475.784 446.578 475.566 446.309 475.566H442.285C442.015 475.566 441.797 475.784 441.797 476.054V478.078C441.797 478.347 442.015 478.566 442.285 478.566Z" fill="#3F3D56"/>
<path d="M432.285 478.566H436.309C436.578 478.566 436.797 478.347 436.797 478.078V476.054C436.797 475.784 436.578 475.566 436.309 475.566H432.285C432.015 475.566 431.797 475.784 431.797 476.054V478.078C431.797 478.347 432.015 478.566 432.285 478.566Z" fill="#3F3D56"/>
<path d="M422.285 478.566H426.309C426.578 478.566 426.797 478.347 426.797 478.078V476.054C426.797 475.784 426.578 475.566 426.309 475.566H422.285C422.015 475.566 421.797 475.784 421.797 476.054V478.078C421.797 478.347 422.015 478.566 422.285 478.566Z" fill="#3F3D56"/>
<path d="M412.285 478.566H416.309C416.578 478.566 416.797 478.347 416.797 478.078V476.054C416.797 475.784 416.578 475.566 416.309 475.566H412.285C412.015 475.566 411.797 475.784 411.797 476.054V478.078C411.797 478.347 412.015 478.566 412.285 478.566Z" fill="#3F3D56"/>
<path d="M402.285 478.566H406.309C406.578 478.566 406.797 478.347 406.797 478.078V476.054C406.797 475.784 406.578 475.566 406.309 475.566H402.285C402.015 475.566 401.797 475.784 401.797 476.054V478.078C401.797 478.347 402.015 478.566 402.285 478.566Z" fill="#3F3D56"/>
<path d="M392.285 478.566H396.309C396.578 478.566 396.797 478.347 396.797 478.078V476.054C396.797 475.784 396.578 475.566 396.309 475.566H392.285C392.015 475.566 391.797 475.784 391.797 476.054V478.078C391.797 478.347 392.015 478.566 392.285 478.566Z" fill="#3F3D56"/>
<path d="M382.285 478.566H386.309C386.578 478.566 386.797 478.347 386.797 478.078V476.054C386.797 475.784 386.578 475.566 386.309 475.566H382.285C382.015 475.566 381.797 475.784 381.797 476.054V478.078C381.797 478.347 382.015 478.566 382.285 478.566Z" fill="#3F3D56"/>
<path d="M372.285 478.566H376.309C376.578 478.566 376.797 478.347 376.797 478.078V476.054C376.797 475.784 376.578 475.566 376.309 475.566H372.285C372.015 475.566 371.797 475.784 371.797 476.054V478.078C371.797 478.347 372.015 478.566 372.285 478.566Z" fill="#3F3D56"/>
<path d="M362.285 478.566H366.309C366.578 478.566 366.797 478.347 366.797 478.078V476.054C366.797 475.784 366.578 475.566 366.309 475.566H362.285C362.015 475.566 361.797 475.784 361.797 476.054V478.078C361.797 478.347 362.015 478.566 362.285 478.566Z" fill="#3F3D56"/>
<path d="M352.285 478.566H356.309C356.578 478.566 356.797 478.347 356.797 478.078V476.054C356.797 475.784 356.578 475.566 356.309 475.566H352.285C352.015 475.566 351.797 475.784 351.797 476.054V478.078C351.797 478.347 352.015 478.566 352.285 478.566Z" fill="#3F3D56"/>
<path d="M502.404 483.566H506.428C506.697 483.566 506.916 483.347 506.916 483.078V481.054C506.916 480.784 506.697 480.566 506.428 480.566H502.404C502.135 480.566 501.916 480.784 501.916 481.054V483.078C501.916 483.347 502.135 483.566 502.404 483.566Z" fill="#3F3D56"/>
<path d="M492.404 483.566H496.428C496.697 483.566 496.916 483.347 496.916 483.078V481.054C496.916 480.784 496.697 480.566 496.428 480.566H492.404C492.135 480.566 491.916 480.784 491.916 481.054V483.078C491.916 483.347 492.135 483.566 492.404 483.566Z" fill="#3F3D56"/>
<path d="M482.404 483.566H486.428C486.697 483.566 486.916 483.347 486.916 483.078V481.054C486.916 480.784 486.697 480.566 486.428 480.566H482.404C482.135 480.566 481.916 480.784 481.916 481.054V483.078C481.916 483.347 482.135 483.566 482.404 483.566Z" fill="#3F3D56"/>
<path d="M472.404 483.566H476.428C476.697 483.566 476.916 483.347 476.916 483.078V481.054C476.916 480.784 476.697 480.566 476.428 480.566H472.404C472.135 480.566 471.916 480.784 471.916 481.054V483.078C471.916 483.347 472.135 483.566 472.404 483.566Z" fill="#3F3D56"/>
<path d="M462.404 483.566H466.428C466.697 483.566 466.916 483.347 466.916 483.078V481.054C466.916 480.784 466.697 480.566 466.428 480.566H462.404C462.135 480.566 461.916 480.784 461.916 481.054V483.078C461.916 483.347 462.135 483.566 462.404 483.566Z" fill="#3F3D56"/>
<path d="M452.404 483.566H456.428C456.697 483.566 456.916 483.347 456.916 483.078V481.054C456.916 480.784 456.697 480.566 456.428 480.566H452.404C452.135 480.566 451.916 480.784 451.916 481.054V483.078C451.916 483.347 452.135 483.566 452.404 483.566Z" fill="#3F3D56"/>
<path d="M442.404 483.566H446.428C446.697 483.566 446.916 483.347 446.916 483.078V481.054C446.916 480.784 446.697 480.566 446.428 480.566H442.404C442.135 480.566 441.916 480.784 441.916 481.054V483.078C441.916 483.347 442.135 483.566 442.404 483.566Z" fill="#3F3D56"/>
<path d="M432.404 483.566H436.428C436.697 483.566 436.916 483.347 436.916 483.078V481.054C436.916 480.784 436.697 480.566 436.428 480.566H432.404C432.135 480.566 431.916 480.784 431.916 481.054V483.078C431.916 483.347 432.135 483.566 432.404 483.566Z" fill="#3F3D56"/>
<path d="M422.404 483.566H426.428C426.697 483.566 426.916 483.347 426.916 483.078V481.054C426.916 480.784 426.697 480.566 426.428 480.566H422.404C422.135 480.566 421.916 480.784 421.916 481.054V483.078C421.916 483.347 422.135 483.566 422.404 483.566Z" fill="#3F3D56"/>
<path d="M412.404 483.566H416.428C416.697 483.566 416.916 483.347 416.916 483.078V481.054C416.916 480.784 416.697 480.566 416.428 480.566H412.404C412.135 480.566 411.916 480.784 411.916 481.054V483.078C411.916 483.347 412.135 483.566 412.404 483.566Z" fill="#3F3D56"/>
<path d="M402.404 483.566H406.428C406.697 483.566 406.916 483.347 406.916 483.078V481.054C406.916 480.784 406.697 480.566 406.428 480.566H402.404C402.135 480.566 401.916 480.784 401.916 481.054V483.078C401.916 483.347 402.135 483.566 402.404 483.566Z" fill="#3F3D56"/>
<path d="M392.404 483.566H396.428C396.697 483.566 396.916 483.347 396.916 483.078V481.054C396.916 480.784 396.697 480.566 396.428 480.566H392.404C392.135 480.566 391.916 480.784 391.916 481.054V483.078C391.916 483.347 392.135 483.566 392.404 483.566Z" fill="#3F3D56"/>
<path d="M382.404 483.566H386.428C386.697 483.566 386.916 483.347 386.916 483.078V481.054C386.916 480.784 386.697 480.566 386.428 480.566H382.404C382.135 480.566 381.916 480.784 381.916 481.054V483.078C381.916 483.347 382.135 483.566 382.404 483.566Z" fill="#3F3D56"/>
<path d="M372.404 483.566H376.428C376.697 483.566 376.916 483.347 376.916 483.078V481.054C376.916 480.784 376.697 480.566 376.428 480.566H372.404C372.135 480.566 371.916 480.784 371.916 481.054V483.078C371.916 483.347 372.135 483.566 372.404 483.566Z" fill="#3F3D56"/>
<path d="M362.404 483.566H366.428C366.697 483.566 366.916 483.347 366.916 483.078V481.054C366.916 480.784 366.697 480.566 366.428 480.566H362.404C362.135 480.566 361.916 480.784 361.916 481.054V483.078C361.916 483.347 362.135 483.566 362.404 483.566Z" fill="#3F3D56"/>
<path d="M352.404 483.566H356.428C356.697 483.566 356.916 483.347 356.916 483.078V481.054C356.916 480.784 356.697 480.566 356.428 480.566H352.404C352.135 480.566 351.916 480.784 351.916 481.054V483.078C351.916 483.347 352.135 483.566 352.404 483.566Z" fill="#3F3D56"/>
<path d="M419.404 489.566H458.428C458.697 489.566 458.916 489.347 458.916 489.078V487.054C458.916 486.784 458.697 486.566 458.428 486.566H419.404C419.135 486.566 418.916 486.784 418.916 487.054V489.078C418.916 489.347 419.135 489.566 419.404 489.566Z" fill="#3F3D56"/>
<path d="M308.692 244.947H564.016C564.281 244.941 564.534 244.831 564.72 244.642C564.905 244.452 565.009 244.197 565.009 243.931C565.009 243.666 564.905 243.411 564.72 243.221C564.534 243.031 564.281 242.922 564.016 242.916H308.692C308.427 242.922 308.174 243.031 307.989 243.221C307.803 243.411 307.699 243.666 307.699 243.931C307.699 244.197 307.803 244.452 307.989 244.642C308.174 244.831 308.427 244.941 308.692 244.947Z" fill="#3F3D56"/>
<path d="M546.636 237.732C549.922 237.732 552.586 235.008 552.586 231.649C552.586 228.289 549.922 225.566 546.636 225.566C543.35 225.566 540.686 228.289 540.686 231.649C540.686 235.008 543.35 237.732 546.636 237.732Z" fill="#3F3D56"/>
<path d="M526.079 237.732C529.366 237.732 532.03 235.008 532.03 231.649C532.03 228.289 529.366 225.566 526.079 225.566C522.793 225.566 520.129 228.289 520.129 231.649C520.129 235.008 522.793 237.732 526.079 237.732Z" fill="#3F3D56"/>
<path d="M505.523 237.732C508.809 237.732 511.473 235.008 511.473 231.649C511.473 228.289 508.809 225.566 505.523 225.566C502.236 225.566 499.572 228.289 499.572 231.649C499.572 235.008 502.236 237.732 505.523 237.732Z" fill="#3F3D56"/>
<path d="M319.98 228.18C319.98 228.324 320.007 228.466 320.062 228.599C320.116 228.733 320.196 228.854 320.298 228.956C320.399 229.058 320.519 229.139 320.652 229.195C320.784 229.25 320.927 229.279 321.07 229.28H335.67C335.959 229.273 336.234 229.154 336.435 228.947C336.637 228.741 336.75 228.464 336.75 228.175C336.75 227.886 336.637 227.609 336.435 227.403C336.234 227.196 335.959 227.077 335.67 227.07H321.07C320.779 227.073 320.501 227.192 320.297 227.4C320.092 227.608 319.979 227.888 319.98 228.18Z" fill="#3F3D56"/>
<path d="M319.98 232.33C319.98 232.474 320.007 232.616 320.062 232.749C320.116 232.883 320.196 233.004 320.298 233.106C320.399 233.208 320.519 233.289 320.652 233.345C320.784 233.4 320.927 233.429 321.07 233.43H335.67C335.959 233.424 336.234 233.304 336.436 233.098C336.638 232.891 336.751 232.614 336.751 232.325C336.751 232.036 336.638 231.759 336.436 231.552C336.234 231.346 335.959 231.226 335.67 231.22H321.07C320.779 231.224 320.501 231.342 320.297 231.55C320.092 231.758 319.979 232.039 319.98 232.33Z" fill="#3F3D56"/>
<path d="M319.98 236.47C319.979 236.761 320.092 237.042 320.297 237.25C320.501 237.458 320.779 237.576 321.07 237.58H335.67C335.959 237.573 336.234 237.454 336.435 237.247C336.637 237.041 336.75 236.764 336.75 236.475C336.75 236.186 336.637 235.909 336.435 235.703C336.234 235.496 335.959 235.377 335.67 235.37H321.07C320.927 235.371 320.784 235.4 320.652 235.455C320.519 235.511 320.399 235.592 320.298 235.694C320.196 235.796 320.116 235.917 320.062 236.051C320.007 236.184 319.98 236.326 319.98 236.47Z" fill="#3F3D56"/>
<path d="M324.491 268.543H319.245C317.655 268.543 316.365 269.833 316.365 271.423C316.365 273.014 317.655 274.303 319.245 274.303H324.491C326.082 274.303 327.371 273.014 327.371 271.423C327.371 269.833 326.082 268.543 324.491 268.543Z" fill="#E6E6E6"/>
<path d="M384.491 268.543H379.245C377.655 268.543 376.365 269.833 376.365 271.423C376.365 273.014 377.655 274.303 379.245 274.303H384.491C386.082 274.303 387.371 273.014 387.371 271.423C387.371 269.833 386.082 268.543 384.491 268.543Z" fill="#E6E6E6"/>
<path d="M401.491 268.543H396.245C394.655 268.543 393.365 269.833 393.365 271.423C393.365 273.014 394.655 274.303 396.245 274.303H401.491C403.082 274.303 404.371 273.014 404.371 271.423C404.371 269.833 403.082 268.543 401.491 268.543Z" fill="#E6E6E6"/>
<path d="M368.171 268.063H335.565C333.975 268.063 332.686 269.353 332.686 270.943C332.686 272.534 333.975 273.823 335.565 273.823H368.171C369.762 273.823 371.051 272.534 371.051 270.943C371.051 269.353 369.762 268.063 368.171 268.063Z" fill="#E6E6E6"/>
<path d="M448.171 268.063H415.565C413.975 268.063 412.686 269.353 412.686 270.943C412.686 272.534 413.975 273.823 415.565 273.823H448.171C449.762 273.823 451.051 272.534 451.051 270.943C451.051 269.353 449.762 268.063 448.171 268.063Z" fill="#E6E6E6"/>
<path d="M340.491 281.543H335.245C333.655 281.543 332.365 282.833 332.365 284.423C332.365 286.014 333.655 287.303 335.245 287.303H340.491C342.082 287.303 343.371 286.014 343.371 284.423C343.371 282.833 342.082 281.543 340.491 281.543Z" fill="#E6E6E6"/>
<path d="M400.491 281.543H395.245C393.655 281.543 392.365 282.833 392.365 284.423C392.365 286.014 393.655 287.303 395.245 287.303H400.491C402.082 287.303 403.371 286.014 403.371 284.423C403.371 282.833 402.082 281.543 400.491 281.543Z" fill="#E6E6E6"/>
<path d="M417.491 281.543H412.245C410.655 281.543 409.365 282.833 409.365 284.423C409.365 286.014 410.655 287.303 412.245 287.303H417.491C419.082 287.303 420.371 286.014 420.371 284.423C420.371 282.833 419.082 281.543 417.491 281.543Z" fill="#E6E6E6"/>
<path d="M384.171 281.063H351.565C349.975 281.063 348.686 282.353 348.686 283.943C348.686 285.534 349.975 286.823 351.565 286.823H384.171C385.762 286.823 387.051 285.534 387.051 283.943C387.051 282.353 385.762 281.063 384.171 281.063Z" fill="#E6E6E6"/>
<path d="M464.171 281.063H431.565C429.975 281.063 428.686 282.353 428.686 283.943C428.686 285.534 429.975 286.823 431.565 286.823H464.171C465.762 286.823 467.051 285.534 467.051 283.943C467.051 282.353 465.762 281.063 464.171 281.063Z" fill="#E6E6E6"/>
<path d="M356.491 294.543H351.245C349.655 294.543 348.365 295.833 348.365 297.423C348.365 299.014 349.655 300.303 351.245 300.303H356.491C358.082 300.303 359.371 299.014 359.371 297.423C359.371 295.833 358.082 294.543 356.491 294.543Z" fill="#E6E6E6"/>
<path d="M416.491 294.543H411.245C409.655 294.543 408.365 295.833 408.365 297.423C408.365 299.014 409.655 300.303 411.245 300.303H416.491C418.082 300.303 419.371 299.014 419.371 297.423C419.371 295.833 418.082 294.543 416.491 294.543Z" fill="#E6E6E6"/>
<path d="M433.491 294.543H428.245C426.655 294.543 425.365 295.833 425.365 297.423C425.365 299.014 426.655 300.303 428.245 300.303H433.491C435.082 300.303 436.371 299.014 436.371 297.423C436.371 295.833 435.082 294.543 433.491 294.543Z" fill="#E6E6E6"/>
<path d="M400.171 294.063H367.565C365.975 294.063 364.686 295.353 364.686 296.943C364.686 298.534 365.975 299.823 367.565 299.823H400.171C401.762 299.823 403.051 298.534 403.051 296.943C403.051 295.353 401.762 294.063 400.171 294.063Z" fill="#E6E6E6"/>
<path d="M480.171 294.063H447.565C445.975 294.063 444.686 295.353 444.686 296.943C444.686 298.534 445.975 299.823 447.565 299.823H480.171C481.762 299.823 483.051 298.534 483.051 296.943C483.051 295.353 481.762 294.063 480.171 294.063Z" fill="#E6E6E6"/>
<path d="M372.491 307.543H367.245C365.655 307.543 364.365 308.833 364.365 310.423C364.365 312.014 365.655 313.303 367.245 313.303H372.491C374.082 313.303 375.371 312.014 375.371 310.423C375.371 308.833 374.082 307.543 372.491 307.543Z" fill="#E6E6E6"/>
<path d="M432.491 307.543H427.245C425.655 307.543 424.365 308.833 424.365 310.423C424.365 312.014 425.655 313.303 427.245 313.303H432.491C434.082 313.303 435.371 312.014 435.371 310.423C435.371 308.833 434.082 307.543 432.491 307.543Z" fill="#E6E6E6"/>
<path d="M449.491 307.543H444.245C442.655 307.543 441.365 308.833 441.365 310.423C441.365 312.014 442.655 313.303 444.245 313.303H449.491C451.082 313.303 452.371 312.014 452.371 310.423C452.371 308.833 451.082 307.543 449.491 307.543Z" fill="#E6E6E6"/>
<path d="M416.171 307.063H383.565C381.975 307.063 380.686 308.353 380.686 309.943C380.686 311.534 381.975 312.823 383.565 312.823H416.171C417.762 312.823 419.051 311.534 419.051 309.943C419.051 308.353 417.762 307.063 416.171 307.063Z" fill="#E6E6E6"/>
<path d="M384.491 359.237H379.245C377.655 359.237 376.365 360.526 376.365 362.117C376.365 363.707 377.655 364.997 379.245 364.997H384.491C386.082 364.997 387.371 363.707 387.371 362.117C387.371 360.526 386.082 359.237 384.491 359.237Z" fill="#E6E6E6"/>
<path d="M401.491 359.237H396.245C394.655 359.237 393.365 360.526 393.365 362.117C393.365 363.707 394.655 364.997 396.245 364.997H401.491C403.082 364.997 404.371 363.707 404.371 362.117C404.371 360.526 403.082 359.237 401.491 359.237Z" fill="#E6E6E6"/>
<path d="M448.171 359.717H415.565C413.975 359.717 412.686 361.006 412.686 362.597C412.686 364.188 413.975 365.477 415.565 365.477H448.171C449.762 365.477 451.051 364.188 451.051 362.597C451.051 361.006 449.762 359.717 448.171 359.717Z" fill="#E6E6E6"/>
<path d="M324.491 359.237H319.245C317.655 359.237 316.365 360.526 316.365 362.117C316.365 363.707 317.655 364.997 319.245 364.997H324.491C326.082 364.997 327.371 363.707 327.371 362.117C327.371 360.526 326.082 359.237 324.491 359.237Z" fill="#E6E6E6"/>
<path d="M368.171 359.717H335.565C333.975 359.717 332.686 361.006 332.686 362.597C332.686 364.188 333.975 365.477 335.565 365.477H368.171C369.762 365.477 371.051 364.188 371.051 362.597C371.051 361.006 369.762 359.717 368.171 359.717Z" fill="#E6E6E6"/>
<path d="M340.491 346.237H335.245C333.655 346.237 332.365 347.526 332.365 349.117C332.365 350.707 333.655 351.997 335.245 351.997H340.491C342.082 351.997 343.371 350.707 343.371 349.117C343.371 347.526 342.082 346.237 340.491 346.237Z" fill="#E6E6E6"/>
<path d="M400.491 346.237H395.245C393.655 346.237 392.365 347.526 392.365 349.117C392.365 350.707 393.655 351.997 395.245 351.997H400.491C402.082 351.997 403.371 350.707 403.371 349.117C403.371 347.526 402.082 346.237 400.491 346.237Z" fill="#E6E6E6"/>
<path d="M417.491 346.237H412.245C410.655 346.237 409.365 347.526 409.365 349.117C409.365 350.707 410.655 351.997 412.245 351.997H417.491C419.082 351.997 420.371 350.707 420.371 349.117C420.371 347.526 419.082 346.237 417.491 346.237Z" fill="#E6E6E6"/>
<path d="M384.171 346.717H351.565C349.975 346.717 348.686 348.006 348.686 349.597C348.686 351.188 349.975 352.477 351.565 352.477H384.171C385.762 352.477 387.051 351.188 387.051 349.597C387.051 348.006 385.762 346.717 384.171 346.717Z" fill="#E6E6E6"/>
<path d="M356.491 333.237H351.245C349.655 333.237 348.365 334.526 348.365 336.117C348.365 337.707 349.655 338.997 351.245 338.997H356.491C358.082 338.997 359.371 337.707 359.371 336.117C359.371 334.526 358.082 333.237 356.491 333.237Z" fill="#E6E6E6"/>
<path d="M416.491 333.237H411.245C409.655 333.237 408.365 334.526 408.365 336.117C408.365 337.707 409.655 338.997 411.245 338.997H416.491C418.082 338.997 419.371 337.707 419.371 336.117C419.371 334.526 418.082 333.237 416.491 333.237Z" fill="#E6E6E6"/>
<path d="M433.491 333.237H428.245C426.655 333.237 425.365 334.526 425.365 336.117C425.365 337.707 426.655 338.997 428.245 338.997H433.491C435.082 338.997 436.371 337.707 436.371 336.117C436.371 334.526 435.082 333.237 433.491 333.237Z" fill="#E6E6E6"/>
<path d="M400.171 333.717H367.565C365.975 333.717 364.686 335.006 364.686 336.597C364.686 338.188 365.975 339.477 367.565 339.477H400.171C401.762 339.477 403.051 338.188 403.051 336.597C403.051 335.006 401.762 333.717 400.171 333.717Z" fill="#E6E6E6"/>
<path d="M372.491 320.237H367.245C365.655 320.237 364.365 321.526 364.365 323.117C364.365 324.707 365.655 325.997 367.245 325.997H372.491C374.082 325.997 375.371 324.707 375.371 323.117C375.371 321.526 374.082 320.237 372.491 320.237Z" fill="#E6E6E6"/>
<path d="M432.491 320.237H427.245C425.655 320.237 424.365 321.526 424.365 323.117C424.365 324.707 425.655 325.997 427.245 325.997H432.491C434.082 325.997 435.371 324.707 435.371 323.117C435.371 321.526 434.082 320.237 432.491 320.237Z" fill="#E6E6E6"/>
<path d="M449.491 320.237H444.245C442.655 320.237 441.365 321.526 441.365 323.117C441.365 324.707 442.655 325.997 444.245 325.997H449.491C451.082 325.997 452.371 324.707 452.371 323.117C452.371 321.526 451.082 320.237 449.491 320.237Z" fill="#E6E6E6"/>
<path d="M416.171 320.717H383.565C381.975 320.717 380.686 322.006 380.686 323.597C380.686 325.188 381.975 326.477 383.565 326.477H416.171C417.762 326.477 419.051 325.188 419.051 323.597C419.051 322.006 417.762 320.717 416.171 320.717Z" fill="#E6E6E6"/>
<path d="M349.912 545.952C349.692 546.062 349.472 546.172 349.252 546.272C347.862 546.962 346.462 547.642 345.052 548.312C340.832 550.322 336.558 552.232 332.232 554.042C320.847 558.804 309.166 562.822 297.262 566.072C295.262 553.602 293.322 524.192 291.462 502.562C291.112 498.492 290.762 494.702 290.412 491.352C290.079 486.954 289.448 482.584 288.522 478.272C288.431 477.934 288.3 477.609 288.132 477.302C288.322 479.032 288.522 484.192 288.712 491.352C288.812 494.702 288.902 498.492 289.002 502.562C289.472 523.382 289.962 551.712 290.452 567.842C289.062 568.182 287.662 568.522 286.262 568.842C285.382 569.052 284.492 569.252 283.602 569.442C282.522 569.682 281.442 569.922 280.362 570.142C279.232 570.382 278.102 570.612 276.972 570.832C258.506 574.46 239.73 576.282 220.912 576.272C219.662 576.272 218.422 576.262 217.172 576.252C216.792 576.252 216.412 576.242 216.022 576.232C214.922 576.212 213.782 576.192 212.622 576.162C190.382 575.547 168.289 572.363 146.782 566.672L147.652 502.562L147.802 491.352L147.862 487.102C147.366 488.469 147.07 489.901 146.982 491.352C146.632 494.082 146.272 497.952 145.912 502.562C144.542 520.322 143.132 548.972 141.672 565.272C124.382 560.352 111.742 555.862 95.9416 547.962C95.3315 547.662 94.7116 547.352 94.1016 547.042C94.2116 546.272 94.3316 545.502 94.4416 544.712C96.2316 532.272 94.1216 516.082 96.1016 502.562C97.6116 492.132 99.1716 482.112 100.742 473.612C102.642 463.382 104.572 455.342 106.482 451.432C108.682 446.922 110.882 442.482 113.012 438.232C113.932 436.402 114.835 434.605 115.722 432.842C116.202 431.892 116.682 430.952 117.152 430.032C119.292 425.842 121.312 421.972 123.162 418.542C124.462 416.132 125.662 413.952 126.762 412.042C128.052 409.792 129.192 407.932 130.132 406.522C137.075 395.998 147.405 388.161 159.412 384.312L159.712 384.232L160.002 384.352L160.332 384.502L179.392 377.532L187.902 357.042L231.612 354.352L238.672 359.722L242.282 362.472L246.132 365.402L253.212 370.792L255.222 371.412L258.212 372.332L278.662 378.612L278.872 378.522L279.172 378.602C290.097 382.099 299.661 388.916 306.532 398.102C307.212 398.982 307.842 399.892 308.452 400.812C310.112 403.272 312.352 407.162 314.992 412.042C316.082 414.052 317.232 416.232 318.442 418.542C319.172 419.932 325.472 439.592 331.602 459.672C337.332 478.472 342.912 497.642 343.642 502.562C343.772 503.472 343.912 504.392 344.042 505.302C344.872 510.992 345.692 516.722 346.482 522.312C347.652 530.602 348.792 538.602 349.882 545.752C349.892 545.822 349.902 545.882 349.912 545.952Z" fill="#0590B9"/>
<path opacity="0.2" d="M303.59 473.566L295.093 440.774L287.59 469.07L303.59 473.566Z" fill="black"/>
<path d="M15.8303 473.186C16.2708 474.469 17.1066 475.579 18.2175 476.357C19.3284 477.135 20.6573 477.541 22.0134 477.517L48.5052 476.835C49.8712 476.808 51.192 476.34 52.27 475.501C53.348 474.662 54.1254 473.496 54.486 472.178L58.2349 432.091C59.565 432.693 61.013 432.991 62.4729 432.962C65.0344 432.897 67.4655 431.818 69.2313 429.961C70.9971 428.105 71.953 425.622 71.8887 423.061C71.8244 420.499 70.7452 418.068 68.8884 416.302C67.0317 414.537 64.5495 413.581 61.988 413.645C61.4045 413.643 60.8224 413.704 60.2518 413.826C59.6312 413.154 58.8769 412.62 58.0374 412.258C57.198 411.896 56.292 411.713 55.3777 411.723L14.6272 412.775C14.2892 412.787 13.9529 412.829 13.622 412.9C12.7284 413.066 11.8808 413.422 11.1363 413.944C10.3918 414.466 9.76765 415.141 9.30592 415.924C8.84419 416.707 8.55558 417.58 8.45949 418.484C8.36339 419.388 8.46207 420.302 8.74885 421.164L15.8303 473.186ZM59.0037 429.369L61.6714 419.816C61.9748 418.713 61.9818 417.549 61.6917 416.442C61.8212 416.441 61.9354 416.38 62.0648 416.38C63.8939 416.342 65.6634 417.031 66.9852 418.296C68.3071 419.56 69.0735 421.298 69.1163 423.127C69.1591 424.956 68.4749 426.727 67.2137 428.053C65.9525 429.378 64.2172 430.149 62.3884 430.197C61.2059 430.234 60.0357 429.948 59.0037 429.369Z" fill="#0E384E"/>
<path d="M13.6211 412.9C14.4893 417.864 24.2502 421.353 35.9869 420.747C46.7797 420.25 55.6044 416.46 57.2212 411.968C56.6228 411.791 56.0006 411.708 55.3768 411.723L14.6263 412.775C14.2882 412.787 13.9519 412.829 13.6211 412.9Z" fill="#172B4D"/>
<path d="M38.138 451.158C38.1917 451.144 38.2427 451.122 38.2889 451.091L44.0421 447.325C44.1116 447.28 44.1688 447.218 44.2083 447.145C44.2479 447.072 44.2686 446.99 44.2687 446.907C44.2687 446.824 44.248 446.743 44.2085 446.67C44.169 446.597 44.1119 446.535 44.0424 446.489L38.0626 442.573C38.0077 442.536 37.9462 442.511 37.8816 442.499C37.817 442.486 37.7506 442.487 37.6861 442.5C37.6216 442.513 37.5604 442.539 37.506 442.576C37.4516 442.613 37.405 442.66 37.3689 442.715C37.3328 442.77 37.308 442.832 37.2958 442.897C37.2836 442.961 37.2843 443.028 37.2978 443.092C37.3114 443.157 37.3375 443.218 37.3747 443.272C37.4119 443.326 37.4595 443.373 37.5147 443.408L42.8556 446.907L37.7416 450.255C37.6426 450.319 37.5697 450.417 37.536 450.53C37.5023 450.644 37.5099 450.765 37.5574 450.874C37.605 450.982 37.6894 451.07 37.7957 451.122C37.902 451.174 38.0233 451.187 38.138 451.158Z" fill="#B4CEDB"/>
<path d="M29.051 451.577C29.1475 451.552 29.2346 451.499 29.301 451.425C29.3674 451.351 29.4101 451.259 29.4236 451.16C29.4372 451.061 29.4209 450.961 29.377 450.871C29.3331 450.782 29.2635 450.708 29.1771 450.658L23.874 447.618L28.9996 443.811C29.0523 443.771 29.0967 443.722 29.1304 443.666C29.1641 443.61 29.1863 443.547 29.1959 443.482C29.2055 443.417 29.2022 443.351 29.1862 443.288C29.1702 443.224 29.1418 443.164 29.1026 443.112C29.0635 443.059 29.0144 443.014 28.9581 442.981C28.9018 442.947 28.8394 442.925 28.7745 442.915C28.7096 442.906 28.6434 442.909 28.5798 442.925C28.5161 442.941 28.4563 442.969 28.4036 443.009L22.665 447.271C22.5983 447.321 22.545 447.386 22.5099 447.461C22.4747 447.536 22.4589 447.619 22.4638 447.702C22.4686 447.785 22.4941 447.865 22.5378 447.936C22.5815 448.006 22.6421 448.065 22.7142 448.106L28.6794 451.526C28.7919 451.59 28.9252 451.608 29.051 451.577Z" fill="#B4CEDB"/>
<path d="M37.5663 454.458C37.6147 454.445 37.6609 454.426 37.7033 454.4C37.7595 454.366 37.8084 454.321 37.8472 454.268C37.886 454.215 37.914 454.155 37.9295 454.091C37.9451 454.027 37.9479 453.961 37.9379 453.896C37.9278 453.831 37.905 453.769 37.8708 453.713L29.7154 440.304C29.646 440.192 29.5349 440.111 29.4063 440.08C29.2776 440.049 29.142 440.07 29.029 440.139C28.9161 440.208 28.835 440.319 28.8035 440.447C28.772 440.576 28.7926 440.712 28.8609 440.825L37.0164 454.233C37.0721 454.324 37.1555 454.395 37.2545 454.436C37.3534 454.476 37.4627 454.484 37.5663 454.458Z" fill="#B4CEDB"/>
<path d="M785.15 547.04C784.54 547.35 783.92 547.66 783.31 547.96C767.51 555.86 754.87 560.35 737.58 565.27C736.12 548.97 734.71 520.32 733.34 502.56C732.98 497.95 732.62 494.08 732.27 491.35C732.182 489.898 731.885 488.467 731.39 487.1L731.45 491.35L731.6 502.56L732.47 566.67C710.962 572.361 688.869 575.545 666.63 576.16C665.47 576.19 664.33 576.21 663.23 576.23C662.84 576.24 662.46 576.25 662.08 576.25C660.83 576.26 659.59 576.27 658.34 576.27C634.904 576.287 611.553 573.457 588.8 567.84C589.29 551.71 589.78 523.38 590.25 502.56C590.35 498.49 590.44 494.7 590.54 491.35C590.73 484.19 590.93 479.03 591.12 477.3C590.951 477.607 590.82 477.932 590.73 478.27C589.804 482.582 589.172 486.952 588.84 491.35C588.49 494.7 588.14 498.49 587.79 502.56C585.93 524.19 583.99 553.6 581.99 566.07C570.085 562.82 558.404 558.802 547.02 554.04C541.02 551.54 535.127 548.843 529.34 545.95C530.44 538.75 531.59 530.68 532.77 522.31C533.69 515.82 534.64 509.15 535.61 502.56C537.11 492.38 588.07 382.45 600.08 378.6L600.38 378.52L600.59 378.61L621.04 372.33L624.03 371.41L626.04 370.79L633.12 365.4L636.97 362.47L640.58 359.72L647.64 354.35L691.35 357.04L699.86 377.53L718.92 384.5L719.25 384.35L719.54 384.23L719.84 384.31C731.846 388.159 742.177 395.996 749.12 406.52C750.06 407.93 751.2 409.79 752.49 412.04C753.59 413.95 754.79 416.13 756.09 418.54C757.94 421.97 759.96 425.84 762.1 430.03C762.57 430.95 763.05 431.89 763.53 432.84C764.42 434.6 765.323 436.397 766.24 438.23C768.37 442.48 770.57 446.92 772.77 451.43C774.68 455.34 776.61 463.38 778.51 473.61C780.08 482.11 781.64 492.13 783.15 502.56C785.13 516.08 783.02 532.27 784.81 544.71C784.92 545.5 785.04 546.27 785.15 547.04Z" fill="#0590B9"/>
<path d="M656.954 346.995C685.03 346.995 707.79 324.234 707.79 296.158C707.79 268.082 685.03 245.322 656.954 245.322C628.877 245.322 606.117 268.082 606.117 296.158C606.117 324.234 628.877 346.995 656.954 346.995Z" fill="#FFB6B6"/>
<path opacity="0.2" d="M575.658 473.566L584.155 440.774L591.658 469.07L575.658 473.566Z" fill="black"/>
<path d="M801.769 452.2C798.729 494.08 801.879 512.52 785.099 547.05C769.832 554.523 753.929 560.62 737.579 565.27C735.879 565.75 734.176 566.217 732.469 566.67C710.962 572.361 688.868 575.545 666.629 576.16C665.469 576.19 664.329 576.21 663.229 576.23C662.839 576.24 662.459 576.25 662.079 576.25C660.829 576.26 659.589 576.27 658.339 576.27C634.903 576.287 611.552 573.457 588.799 567.84C586.519 567.28 584.249 566.69 581.989 566.07C570.085 562.82 558.404 558.802 547.019 554.04C541.019 551.54 535.126 548.843 529.339 545.95C528.029 545.29 526.719 544.63 525.429 543.95C518.799 532.29 515.029 518.11 514.949 501.07C519.539 471.71 791.629 426.88 801.769 452.2Z" fill="#0E384E"/>
<path opacity="0.2" d="M801.761 459.372C801.917 456.779 802.09 454.101 802.293 451.312C792.153 425.992 520.063 470.822 515.473 500.182C515.485 502.874 515.6 505.486 515.794 508.037C526.91 479.059 785.399 436.451 801.761 459.372Z" fill="black"/>
<path d="M508.182 454.175L530.515 443.008L511.904 392.758L506.999 367.416C506.362 364.123 504.872 361.056 502.677 358.52C500.483 355.984 497.662 354.068 494.495 352.964C491.329 351.86 487.928 351.606 484.633 352.228C481.337 352.85 478.263 354.326 475.717 356.508C471.944 359.742 469.575 364.316 469.11 369.264C468.644 374.211 470.12 379.146 473.224 383.027L491.431 405.786L508.182 454.175Z" fill="#FFB6B6"/>
<path d="M530.516 433.703L500.738 448.592L523.337 519.401C524.96 524.486 527.869 529.065 531.782 532.694C535.695 536.324 540.48 538.881 545.672 540.117C552.075 541.642 558.796 541.087 564.862 538.535C570.928 535.982 576.024 531.564 579.41 525.92L639.335 423.206C643.582 416.129 644.892 407.671 642.987 399.64C641.082 391.609 636.112 384.641 629.139 380.224C625.389 377.849 621.18 376.29 616.788 375.649C612.395 375.008 607.916 375.299 603.644 376.503C599.371 377.707 595.399 379.797 591.988 382.638C588.576 385.478 585.801 389.005 583.843 392.989L547.267 470.926L530.516 433.703Z" fill="#0590BB"/>
<path d="M209.507 343.487C240.399 343.487 265.442 318.444 265.442 287.552C265.442 256.66 240.399 231.617 209.507 231.617C178.615 231.617 153.572 256.66 153.572 287.552C153.572 318.444 178.615 343.487 209.507 343.487Z" fill="#FFB6B6"/>
<path d="M154.244 249.006C158.792 242.876 165.329 238.518 170.329 232.751C173.073 229.587 175.351 226.002 178.435 223.169C184.165 217.906 192.179 215.749 199.955 215.481C208.477 215.262 216.931 217.052 224.633 220.707C232.334 224.362 239.067 229.779 244.286 236.519C248.351 234.136 252.415 231.753 256.48 229.37C258.086 233.597 259.691 237.823 261.297 242.05C262.615 240.904 264.296 240.262 266.042 240.238C267.788 240.213 269.486 240.808 270.836 241.916C272.185 243.024 273.099 244.574 273.415 246.291C273.73 248.008 273.428 249.782 272.561 251.298C273.528 248.309 277.96 247.674 280.403 249.649C282.847 251.624 283.501 255.137 283.103 258.253C282.602 261.672 281.091 264.863 278.763 267.416C276.434 269.969 273.396 271.767 270.038 272.579C264.734 273.761 258.56 272.519 254.315 275.912C250.912 278.631 249.884 283.583 246.411 286.213C242.131 289.453 236.081 287.955 230.761 288.671C221.453 289.924 214.083 299.444 215.201 308.769C214.359 305.826 213.474 302.799 211.563 300.409C209.651 298.018 206.432 296.402 203.5 297.281C198.655 298.733 197.862 305.338 199.036 310.259C202.151 323.309 213.956 344.403 213.956 344.403C198.628 350.449 180.367 344.732 168.54 333.259C156.714 321.786 150.555 305.54 147.872 289.283C145.597 275.497 145.919 260.227 154.244 249.006Z" fill="#2F2E41"/>
<path d="M720.661 324.182C731.303 299.784 725.274 277.333 712.301 265.422V265.412C707.201 253.982 700.421 245.162 692.661 243.092C688.911 240.682 685.271 237.852 681.231 236.412C679.349 235.708 677.344 235.392 675.337 235.483C673.33 235.574 671.361 236.07 669.551 236.942L667.491 236.392C665.741 231.922 663.691 231.832 661.411 234.772C652.631 230.682 644.721 228.852 637.681 228.852C614.721 228.852 601.141 248.292 597.541 271.792L616.731 276.902L623.401 266.272L620.321 277.862L630.911 280.672C647.031 301.662 627.741 350.082 603.291 377.022C609.111 375.412 614.908 374.052 620.681 372.942L641.661 342.182L628.661 370.182C635.411 369.192 644.021 370.142 653.431 372.052C656.601 367.912 658.271 362.392 656.631 357.472C659.312 362.661 661.162 368.239 662.111 374.002C681.971 378.852 709.061 381.342 723.661 383.182C735.457 379.332 735.489 335.842 720.661 324.182Z" fill="#2F2E41"/>
<path d="M727.585 241.191C735.38 258.644 719.652 266.151 705.244 265.939C692.225 265.747 681.16 256.601 680.496 243.597C680.176 237.353 682.351 231.238 686.541 226.596C690.731 221.955 696.593 219.168 702.837 218.849C715.84 218.185 722.276 229.302 727.585 241.191Z" fill="#2F2E41"/>
<path d="M365.982 525.309L353.143 503.893L395.834 471.505L413.584 452.764C415.89 450.33 418.794 448.543 422.007 447.582C425.22 446.622 428.629 446.521 431.893 447.291C435.157 448.061 438.162 449.673 440.607 451.968C443.053 454.263 444.853 457.159 445.829 460.368C447.274 465.123 446.815 470.253 444.55 474.676C442.285 479.099 438.389 482.469 433.686 484.074L406.104 493.491L365.982 525.309Z" fill="#FFB6B6"/>
<path d="M375.261 524.602L355.271 541.262L349.882 545.752L349.252 546.272C347.862 546.962 346.462 547.642 345.052 548.312C340.832 550.322 336.558 552.232 332.232 554.042C320.847 558.804 309.166 562.822 297.262 566.072C295.002 566.692 292.732 567.282 290.452 567.842C289.062 568.182 287.662 568.522 286.262 568.842C285.382 569.052 284.492 569.252 283.602 569.442C282.522 569.682 281.442 569.922 280.362 570.142C279.232 570.382 278.102 570.612 276.972 570.832C273.931 567.939 271.51 564.458 269.856 560.6C268.203 556.743 267.35 552.589 267.352 548.392C267.352 548.122 267.352 547.842 267.362 547.562L270.572 465.232L271.992 428.742C272.21 420.49 275.648 412.651 281.569 406.9C287.491 401.148 295.427 397.941 303.682 397.962C304.642 397.962 305.592 398.012 306.532 398.102C307.212 398.982 307.842 399.892 308.452 400.812C310.112 403.272 312.352 407.162 314.992 412.042C316.082 414.052 317.232 416.232 318.442 418.542C319.172 419.932 325.472 439.592 331.602 459.672L328.902 480.642L324.022 518.442L344.042 505.302L358.142 496.042L359.812 498.832L364.162 506.092L372.562 520.092L375.261 524.602Z" fill="#068FBB"/>
<path d="M364.302 501.072C364.292 502.772 364.252 504.442 364.162 506.092C363.954 510.644 363.426 515.175 362.582 519.652C361.202 527.171 358.74 534.45 355.272 541.262C354.812 542.172 354.322 543.072 353.822 543.952C352.532 544.632 351.222 545.292 349.912 545.952C349.692 546.062 349.472 546.172 349.252 546.272C343.682 549.042 338.009 551.632 332.232 554.042C320.848 558.804 309.167 562.822 297.262 566.072C295.002 566.692 292.732 567.282 290.452 567.842C286.002 568.942 281.509 569.939 276.972 570.832C258.506 574.46 239.731 576.282 220.912 576.272C219.662 576.272 218.422 576.262 217.172 576.252C216.792 576.252 216.412 576.242 216.022 576.232C214.922 576.212 213.782 576.192 212.622 576.162C190.383 575.547 168.29 572.363 146.782 566.672C145.072 566.222 143.369 565.756 141.672 565.272C125.323 560.622 109.42 554.525 94.1524 547.052C77.3724 512.522 80.5224 494.082 77.4824 452.202C83.7224 436.612 189.292 447.622 270.572 465.232C292.632 470.012 312.892 475.282 328.902 480.642C345.442 486.172 357.432 491.792 362.132 497.072C363.231 498.165 363.985 499.556 364.302 501.072Z" fill="#0F3750"/>
<path opacity="0.2" d="M77.4883 459.372C77.3331 456.779 77.1595 454.101 76.957 451.312C87.097 425.992 359.187 470.822 363.777 500.182C363.764 502.874 363.649 505.486 363.456 508.037C352.34 479.059 93.851 436.451 77.4883 459.372Z" fill="black"/>
</g>
<defs>
<clipPath id="clip0_260_1043">
<rect width="880.16" height="576.272" fill="white"/>
</clipPath>
</defs>
</svg>
